<?xml version="1.0" encoding="utf-8"?>
<!-- Generator: Adobe Illustrator 19.2.1, SVG Export Plug-In . SVG Version: 6.00 Build 0)  -->
<svg version="1.1" id="Layer_1" xmlns="http://www.w3.org/2000/svg" xmlns:xlink="http://www.w3.org/1999/xlink" x="0px" y="0px"
	 viewBox="0 0 298 320" style="enable-background:new 0 0 298 320;" xml:space="preserve">
<style type="text/css">
	.st0{fill:#ED1B5E;}
	.st1{fill:#EC195D;}
</style>
<g>
	<path class="st0" d="M133.6,114.7c0.6-5.9-1.1-11.8-4.8-16.4s-9.1-7.6-15-8.2s-11.8,1.1-16.4,4.8c-4.7,3.7-7.6,9.1-8.2,15
		s1.1,11.8,4.8,16.4c3.8,4.7,9.1,7.6,15,8.2c3.9,0.4,6.7,3.9,6.3,7.8c-0.4,3.6-3.5,6.3-7,6.3c-0.3,0-0.5,0-0.8,0
		c-9.7-1-18.4-5.8-24.5-13.4c-6.1-7.6-8.9-17.1-7.9-26.8S80.9,90,88.5,83.9s17.1-8.9,26.8-7.9s18.4,5.8,24.5,13.4s8.9,17.1,7.9,26.8
		c-0.4,3.9-3.9,6.7-7.8,6.3C136,122.1,133.1,118.6,133.6,114.7L133.6,114.7z M111.3,293.3c-9.6,0-12.3-4.8-17.5-15.7
		C93.1,276,80,250,80,250c-18-35.5-55.6-109.2-55.6-137.7c0-47.9,39-86.9,86.9-86.9c42.7,0,78.8,30.5,85.8,72.6
		c0.4,2.5,0.7,5,0.9,7.4c0.3,3.9,3.7,6.8,7.6,6.5c3.9-0.3,6.8-3.7,6.5-7.6c-0.2-2.9-0.6-5.8-1.1-8.7c-3.9-23.3-16-44.7-34-60.2
		c-18.3-15.6-41.6-24.3-65.7-24.3c-55.7,0-101.1,45.4-101.1,101.1c0,29.4,29.5,89.8,57.1,144.2c0,0,13,25.7,13.7,27.2
		c5.1,10.6,11.3,23.8,30.3,23.8c3.9,0,7.1-3.2,7.1-7.1S115.2,293.3,111.3,293.3L111.3,293.3z"/>
</g>
<path class="st0" d="M197.7,152.2c-36,0-65.2,29.2-65.2,65.2c0,26,15.2,48.3,37.2,58.8l2-39.4c0,0-3.8-1.3-4.7-1.7
	c-8.1-3.6-14.1-14.2-14.1-27.9c0-14.9,11.6-27.8,22.8-27.9l0,0c11.2,0.1,22.8,13,22.8,27.9c0,13.7-5.9,24.3-14.1,27.9
	c-0.1,0-4.7,1.7-4.7,1.7l2.3,43.9c5,1.2,10.2,2,15.6,2c7.3,0,14.2-1.2,20.7-3.4l2-39.1c-5.3-1.2-9.9-4.6-12.7-8.8
	c-3.5-5.3,2.7-52,2.7-52h4.1v43.9h4v-43.9h4.4v43.9h4v-43.9h4.6v43.9h4v-43.9h3.1c0,0,6.2,46.8,2.7,52.1c-2.8,4.2-7.3,7.6-12.6,8.8
	c-0.1,0-0.2,0.1-0.2,0.1l1.7,33.6c19.4-11.3,32.5-32.3,32.5-56.4C262.9,181.4,233.7,152.2,197.7,152.2L197.7,152.2z"/>
<path class="st0" d="M197.7,127.5c-49.6,0-89.9,40.3-89.9,89.9s40.4,90,89.9,90c49.6,0,90-40.4,90-90
	C287.6,167.9,247.3,127.5,197.7,127.5z M197.7,293.3c-41.8,0-75.8-34-75.8-75.8s34-75.8,75.8-75.8s75.8,34,75.8,75.8
	C273.4,259.3,239.5,293.3,197.7,293.3z"/>
<g>
	<path class="st1" d="M118.7,298c-0.1-0.2-15.4-24.1-22-54.8c-8.6-39.8-2.6-71.7,17.9-94.8c2.9-3.3,2.6-8.4-0.7-11.3
		c-1.8-1.6-4.1-2.2-6.3-1.9c-5.8-0.8-10.9-3.7-14.6-8.2c-3.8-4.7-5.6-10.6-4.9-16.7c0.6-6,3.6-11.5,8.3-15.3
		c4.7-3.8,10.6-5.6,16.7-4.9c6,0.6,11.5,3.6,15.3,8.3c3.8,4.7,5.6,10.7,4.9,16.7c-0.1,1,0,2,0.3,3c0,1.5,0.5,3,1.3,4.3
		c1.5,2.3,4.1,3.6,6.7,3.6c1.5,0,3.1-0.4,4.4-1.4c0.2-0.1,21.1-13.8,58.5-11.9c1.3,0.1,2.5-0.2,3.6-0.7c3.2-1,5.3-4,5.1-7.4
		c-0.2-2.9-0.6-5.9-1.1-8.8c-3.9-23.7-16.2-45.5-34.6-61.2C159,18.6,135.3,9.9,110.8,9.9C54.1,9.9,8,56,8,112.7
		c0,29.9,30,91.3,58.1,146.5c0,0,13.3,26.2,14,27.6c5.1,10.8,13.5,24.2,32.8,24.2c4,0,8-3.3,8-7.3
		C120.8,303.1,120.8,301.1,118.7,298z"/>
</g>
</svg>
