<?xml version="1.0" encoding="utf-8"?>
<!-- Generator: Adobe Illustrator 19.2.1, SVG Export Plug-In . SVG Version: 6.00 Build 0)  -->
<svg version="1.1" id="Layer_1" xmlns="http://www.w3.org/2000/svg" xmlns:xlink="http://www.w3.org/1999/xlink" x="0px" y="0px"
	 viewBox="0 0 298 320" style="enable-background:new 0 0 298 320;" xml:space="preserve">
<style type="text/css">
	.st0{fill:#FFFFFF;}
</style>
<g>
	<path class="st0" d="M133.6,114.7c0.6-5.9-1.1-11.8-4.8-16.4c-3.7-4.6-9.1-7.6-15-8.2c-5.9-0.6-11.8,1.1-16.4,4.8
		c-4.7,3.7-7.6,9.1-8.2,15c-0.6,5.9,1.1,11.8,4.8,16.4c3.8,4.7,9.1,7.6,15,8.2c3.9,0.4,6.7,3.9,6.3,7.8c-0.4,3.6-3.5,6.3-7,6.3
		c-0.3,0-0.5,0-0.8,0c-9.7-1-18.4-5.8-24.5-13.4c-6.1-7.6-8.9-17.1-7.9-26.8c1-9.7,5.8-18.4,13.4-24.5c7.6-6.1,17.1-8.9,26.8-7.9
		c9.7,1,18.4,5.8,24.5,13.4c6.1,7.6,8.9,17.1,7.9,26.8c-0.4,3.9-3.9,6.7-7.8,6.3C136,122.1,133.1,118.6,133.6,114.7L133.6,114.7z
		 M111.3,293.3c-9.6,0-12.3-4.8-17.5-15.7C93.1,276,80,250,80,250c-18-35.5-55.6-109.2-55.6-137.7c0-47.9,39-86.9,86.9-86.9
		c42.7,0,78.8,30.5,85.8,72.6c0.4,2.5,0.7,5,0.9,7.4c0.3,3.9,3.7,6.8,7.6,6.5c3.9-0.3,6.8-3.7,6.5-7.6c-0.2-2.9-0.6-5.8-1.1-8.7
		c-3.9-23.3-16-44.7-34-60.2c-18.3-15.6-41.6-24.3-65.7-24.3c-55.7,0-101.1,45.4-101.1,101.1c0,29.4,29.5,89.8,57.1,144.2
		c0,0,13,25.7,13.7,27.2c5.1,10.6,11.3,23.8,30.3,23.8c3.9,0,7.1-3.2,7.1-7.1C118.4,296.4,115.2,293.3,111.3,293.3L111.3,293.3z
		 M216.2,217.5"/>
</g>
<path class="st0" d="M197.7,152.2c-36,0-65.2,29.2-65.2,65.2c0,26,15.2,48.3,37.2,58.8l2-39.4c0,0-3.8-1.3-4.7-1.7
	c-8.1-3.6-14.1-14.2-14.1-27.9c0-14.9,11.6-27.8,22.8-27.9h0c11.2,0.1,22.8,13,22.8,27.9c0,13.7-5.9,24.3-14.1,27.9
	c-0.1,0-4.7,1.7-4.7,1.7l2.3,43.9c5,1.2,10.2,2,15.6,2c7.3,0,14.2-1.2,20.7-3.4l2-39.1c-5.3-1.2-9.9-4.6-12.7-8.8
	c-3.5-5.3,2.7-52,2.7-52h4.1v43.9h4v-43.9h4.4v43.9h4v-43.9h4.6v43.9h4v-43.9h3.1c0,0,6.2,46.8,2.7,52.1c-2.8,4.2-7.3,7.6-12.6,8.8
	c-0.1,0-0.2,0.1-0.2,0.1l1.7,33.6c19.4-11.3,32.5-32.3,32.5-56.4C262.9,181.4,233.7,152.2,197.7,152.2L197.7,152.2z M197.7,152.2"/>
<path class="st0" d="M197.7,127.5c-49.6,0-89.9,40.3-89.9,89.9c0,49.6,40.4,90,89.9,90c49.6,0,90-40.4,90-90
	C287.6,167.9,247.3,127.5,197.7,127.5z M197.7,293.3c-41.8,0-75.8-34-75.8-75.8c0-41.8,34-75.8,75.8-75.8c41.8,0,75.8,34,75.8,75.8
	C273.4,259.3,239.5,293.3,197.7,293.3z"/>
</svg>
